<svg xmlns="http://www.w3.org/2000/svg" viewBox="0 0 42 42">
  <title>Circular Arrow CTA</title>
  <desc>Downward pointing arrow in a white circle typically used to auto-scroll the window below the fold of a given module.</desc>
  <g>
    <path class="st0" d="M21,42C9.4,42,0,32.6,0,21S9.4,0,21,0s21,9.4,21,21S32.6,42,21,42z M21,1.3C10.1,1.3,1.3,10.1,1.3,21
  		S10.1,40.7,21,40.7S40.7,31.9,40.7,21S31.9,1.3,21,1.3z"/>
  	<path class="st1" d="M21,27c-0.3,0-0.5-0.1-0.7-0.3L13,19.5c-0.4-0.4-0.4-1,0-1.4s1-0.4,1.4,0l6.5,6.5l6.5-6.5c0.4-0.4,1-0.4,1.4,0
  		s0.4,1,0,1.4l-7.2,7.2C21.5,26.9,21.3,27,21,27z"/>
  </g>
</svg>
