<?xml version="1.0" encoding="UTF-8"?>
<svg width="410px" height="200px" viewBox="0 0 410 200" version="1.1" xmlns="http://www.w3.org/2000/svg" xmlns:xlink="http://www.w3.org/1999/xlink">
    <!-- Generator: Sketch 45 (43475) - http://www.bohemiancoding.com/sketch -->
    <title>Group</title>
    <desc>Created with Sketch.</desc>
    <defs></defs>
    <g id="Page-1" stroke="none" stroke-width="1" fill="none" fill-rule="evenodd">
        <g id="Group">
            <rect id="Rectangle" fill="#00237E" x="0" y="0" width="410" height="200"></rect>
            <g id="logo" transform="translate(105.000000, 68.000000)" fill-rule="nonzero" fill="#FFFFFF">
                <path d="M62.496776,13.3326455 C52.913937,13.3326455 45.6226465,20.2072909 45.6226465,29.9984525 C45.6226465,39.789614 52.913937,46.6642594 62.496776,46.6642594 C67.0798729,46.6642594 70.6213568,44.5810335 72.0796149,42.9144528 L72.0796149,46.2476142 L79.5792281,46.2476142 L79.5792281,13.7492907 L72.0796149,13.7492907 L72.0796149,17.0824521 C70.6213568,15.4158714 66.8715503,13.3326455 62.496776,13.3326455 M62.7050986,39.789614 C57.0803887,39.789614 52.913937,35.4148397 52.913937,29.9984525 C52.913937,24.5820652 57.2887113,20.2072909 62.7050986,20.2072909 C68.1214858,20.2072909 72.2879375,24.5820652 72.2879375,29.9984525 C72.2879375,35.4148397 68.1214858,39.789614 62.7050986,39.789614" id="Shape"></path>
                <path d="M127.076778,13.3326455 C122.702003,13.3326455 119.368842,14.9992262 117.285616,17.0824521 L117.285616,13.7492907 L109.994326,13.7492907 L109.994326,63.3300663 L117.285616,62.496776 L117.285616,42.7061302 C119.368842,44.9976787 122.910326,46.4559368 127.076778,46.4559368 C137.076262,46.4559368 143.742585,39.9979366 143.742585,29.7901299 C143.742585,19.7906457 137.076262,13.3326455 127.076778,13.3326455 M126.868455,39.789614 C121.035423,39.789614 117.285616,35.6231623 117.285616,29.9984525 C117.285616,24.3737426 121.035423,20.2072909 126.868455,20.2072909 C132.701488,20.2072909 136.659617,24.3737426 136.659617,29.9984525 C136.451294,35.6231623 132.701488,39.789614 126.868455,39.789614" id="Shape"></path>
                <path d="M199.989683,13.3326455 C195.406586,13.3326455 192.906715,14.9992262 191.448457,17.0824521 L191.448457,13.7492907 L184.157167,13.7492907 L184.157167,46.2476142 L191.448457,46.2476142 L191.448457,28.3318718 C191.448457,23.5404523 194.781618,20.2072909 199.364715,20.2072909 L199.989683,20.2072909 L199.989683,13.3326455 Z" id="Shape"></path>
                <path d="M163.324908,13.3326455 C153.742069,13.3326455 146.242456,20.8322587 146.242456,29.9984525 C146.242456,39.1646463 153.742069,46.6642594 163.324908,46.6642594 C171.241166,46.6642594 177.699166,42.2894851 179.782392,36.4564526 L171.032844,36.4564526 C169.991231,38.5396785 167.283037,39.9979366 163.324908,39.9979366 C158.533488,39.9979366 154.783682,36.6647752 153.950391,32.4983235 L179.990715,32.4983235 C180.199037,31.6650332 180.199037,30.8317428 180.199037,29.9984525 C180.199037,20.8322587 172.699424,13.3326455 163.324908,13.3326455 L163.324908,13.3326455 Z M154.367037,26.0403233 C155.40865,22.7071619 158.950134,19.9989683 163.324908,19.9989683 C167.49136,19.9989683 171.241166,22.7071619 172.282779,26.0403233 L154.367037,26.0403233 Z" id="Shape"></path>
                <path d="M95.2034221,19.7906457 C93.7451639,19.7906457 92.0785833,20.4156135 92.0785833,22.2905168 C92.0785833,24.3737426 94.1618091,24.9987104 98.1199383,26.4569685 C103.536326,28.5401944 106.244519,31.0400654 106.244519,36.0398075 C106.244519,41.2478721 101.869745,46.6642594 94.3701317,46.6642594 C86.8705186,46.6642594 82.9123894,41.0395496 82.7040669,36.4564526 L89.7870348,36.4564526 C90.20368,38.5396785 91.8702607,40.2062592 94.3701317,40.2062592 C97.0783253,40.2062592 98.744906,38.3313559 98.744906,36.2481301 C98.744906,34.789872 98.1199383,33.1232913 93.5368414,31.8733557 C88.5370993,30.6234202 84.9956153,27.9152266 84.9956153,22.4988393 C84.9956153,17.4990973 89.3703896,13.5409681 94.9950995,13.5409681 C99.9948415,13.5409681 103.11968,17.0824521 104.577938,19.3740005 L98.5365834,22.0821942 C97.7032931,20.4156135 96.4533576,19.7906457 95.2034221,19.7906457" id="Shape"></path>
                <path d="M23.5404523,0 C10.2078067,0 0,10.4161293 0,23.3321297 C0,36.2481301 10.2078067,46.6642594 23.5404523,46.6642594 C32.0816783,46.6642594 39.9979366,42.0811625 43.5394206,35.6231623 L36.6647752,31.8733557 C33.9565816,36.6647752 29.3734847,39.3729689 23.5404523,39.3729689 C19.3740005,39.3729689 15.2075488,37.7063882 12.4993552,34.789872 C9.58283898,31.6650332 7.91625829,27.706904 7.91625829,23.5404523 C7.91625829,19.3740005 9.58283898,15.4158714 12.4993552,12.2910326 C15.2075488,9.37451639 19.165678,7.7079357 23.5404523,7.7079357 C28.1235492,7.7079357 30.8317428,9.16619381 32.7066461,10.6244519 C34.789872,12.08271 36.8730978,13.5409681 40.4145818,13.5409681 C46.872582,13.5409681 49.7890982,8.33290346 50.4140659,5.62470984 L43.1227754,4.16645173 C43.1227754,4.37477432 42.4978077,6.45800018 40.4145818,6.45800018 C39.3729689,6.45800018 38.7480011,6.04135501 37.289743,4.99974208 C34.5815494,2.49987104 31.0400654,0 23.5404523,0" id="Shape"></path>
            </g>
        </g>
    </g>
</svg>