<?xml version="1.0" encoding="UTF-8"?>
<svg width="410px" height="200px" viewBox="0 0 410 200" version="1.1" xmlns="http://www.w3.org/2000/svg" xmlns:xlink="http://www.w3.org/1999/xlink">
    <!-- Generator: Sketch 45 (43475) - http://www.bohemiancoding.com/sketch -->
    <title>Group</title>
    <desc>Created with Sketch.</desc>
    <defs></defs>
    <g id="Page-1" stroke="none" stroke-width="1" fill="none" fill-rule="evenodd">
        <g id="Group">
            <rect id="Rectangle" fill="#FFFFFF" x="0" y="0" width="410" height="200"></rect>
            <g id="casper-logo-mark" transform="translate(165.000000, 62.000000)" fill-rule="nonzero" fill="#00237E">
                <path d="M58.5959657,52.0122596 C54.3618042,59.8775355 46.7312563,64.3781247 37.5904487,64.3781247 C30.7606932,64.3781247 24.3437874,61.675356 19.8816906,56.7785217 C15.4769549,51.9458414 12.6156882,45.3153406 12.6156882,38.1127374 C12.6156882,30.904851 15.4769549,24.2826525 19.8816906,19.4469531 C24.3437874,14.5501189 30.7606932,11.8526334 37.5904487,11.8526334 C44.4186946,11.8526334 48.80909,14.1304765 52.1737767,16.6724829 C55.0508932,18.8499439 58.6306844,21.3345892 64.2392503,21.3345892 C74.4495422,21.3345892 78.9380554,12.9908002 79.8973458,8.48794671 L68.6379479,6.10141928 C68.5534156,6.48634306 67.7450757,9.82838717 64.2392503,9.82838717 C62.6920076,9.82838717 61.7523407,9.21326387 59.2427886,7.31657082 C55.1595776,4.22963306 49.5630877,0 37.5904487,0 C16.3894507,0 0,17.0241976 0,38.1119827 C0,59.1997678 16.3894507,76.2247201 37.5904487,76.2247201 C51.0190053,76.2247201 63.6490338,68.8032387 69.4221357,58.0668842 L58.5959657,52.0122596 Z" id="Shape"></path>
            </g>
        </g>
    </g>
</svg>