<?xml version="1.0" encoding="UTF-8"?>
<svg width="24px" height="17px" viewBox="0 0 24 17" version="1.1" xmlns="http://www.w3.org/2000/svg" xmlns:xlink="http://www.w3.org/1999/xlink">
    <!-- Generator: Sketch Beta 47 (45359) - http://www.bohemiancoding.com/sketch -->
    <title>Menu</title>
    <desc>Created with Sketch Beta.</desc>
    <defs></defs>
    <g id="Symbols-Library" stroke="none" stroke-width="1" fill="none" fill-rule="evenodd">
        <g id="SG/SG-Header" transform="translate(-20.000000, -17.000000)" fill="#FFFFFF">
            <g id="Menu" transform="translate(20.000000, 17.000000)">
                <path d="M22.8685714,0 L0.642857143,0 C0.288,0 0,0.300631579 0,0.671052632 C0,1.04147368 0.288,1.34210526 0.642857143,1.34210526 L22.8685714,1.34210526 C23.2234286,1.34210526 23.5114286,1.04147368 23.5114286,0.671052632 C23.5114286,0.300631579 23.2234286,0 22.8685714,0 M5.72571429,15.6578947 L0.642857143,15.6578947 C0.288,15.6578947 0,15.9585263 0,16.3289474 C0,16.6993684 0.288,17 0.642857143,17 L5.72571429,17 C6.08057143,17 6.36857143,16.6993684 6.36857143,16.3289474 C6.36857143,15.9585263 6.08057143,15.6578947 5.72571429,15.6578947 M14.94,8.5 C14.94,8.87042105 14.652,9.17105263 14.2971429,9.17105263 L0.642857143,9.17105263 C0.288,9.17105263 0,8.87042105 0,8.5 C0,8.12957895 0.288,7.82894737 0.642857143,7.82894737 L14.2971429,7.82894737 C14.652,7.82894737 14.94,8.12957895 14.94,8.5" id="Fill-1"></path>
            </g>
        </g>
    </g>
</svg>